<?xml version="1.0" encoding="utf-8"?>
<!-- Generator: Adobe Illustrator 18.1.1, SVG Export Plug-In . SVG Version: 6.00 Build 0)  -->
<svg version="1.1" id="Layer_1" xmlns="http://www.w3.org/2000/svg" xmlns:xlink="http://www.w3.org/1999/xlink" x="0px" y="0px"
	 width="295.2px" height="67.2px" viewBox="0 0 295.2 67.2" enable-background="new 0 0 295.2 67.2" xml:space="preserve">
<g>
	<path d="M114.1,43.1c-1.2,1.3-2.8,2.1-5.2,2.1c-4.8,0-8-3.6-8-8.4c0-4.7,3.2-8.4,8-8.4c2.4,0,4,0.8,5.2,2.1
		c0.2,0.2,0.3,0.4,0.3,0.7c0,0.6-0.5,1.1-1.1,1.1c-0.3,0-0.6-0.1-0.9-0.4c-1-0.9-2.1-1.3-3.4-1.3c-3.4,0-5.5,2.6-5.5,6.1
		c0,3.5,2.1,6.2,5.5,6.2c1.3,0,2.4-0.4,3.4-1.4c0.2-0.2,0.5-0.3,0.8-0.3c0.6,0,1.2,0.5,1.2,1.1C114.4,42.6,114.3,42.9,114.1,43.1z"
		/>
	<path d="M124.6,31.1c-1.6,0.1-3.2,0.8-4.2,2.4v10.3c0,0.7-0.6,1.2-1.3,1.2h0c-0.7,0-1.2-0.6-1.2-1.2V29.8c0-0.6,0.6-1.2,1.3-1.2
		c0.6,0,1.2,0.6,1.2,1.2v1.6c1-1.3,2.5-2.8,4.4-2.8c0.6,0,1.1,0.5,1.1,1.2C125.8,30.4,125.3,31,124.6,31.1z"/>
	<path d="M139.6,44.9c-0.7,0-1.2-0.6-1.2-1.3v-0.7c-1.3,1.5-3.1,2.2-5.3,2.2c-2.7,0-5.6-1.8-5.6-5.3c0-3.6,2.9-5.2,5.6-5.2
		c2.2,0,4,0.7,5.3,2.2v-2.9c0-2.1-1.7-3.4-4-3.4c-1.6,0-2.9,0.5-4.2,1.5c-0.2,0.2-0.5,0.3-0.7,0.3c-0.5,0-1.1-0.4-1.1-1
		c0-0.3,0.1-0.5,0.3-0.7c1.7-1.5,3.7-2.2,5.9-2.2c3.4,0,6.2,1.5,6.2,5.4v9.9C140.9,44.4,140.3,44.9,139.6,44.9z M138.4,38.4
		c-1-1.3-2.6-2-4.4-2c-2.3,0-3.9,1.5-3.9,3.5c0,2,1.6,3.5,3.9,3.5c1.7,0,3.4-0.7,4.4-2V38.4z"/>
	<path d="M156.5,44.9c-0.7,0-1.2-0.6-1.2-1.2v-9.4c0-2.8-1.4-3.7-3.6-3.7c-1.9,0-3.8,1.2-4.7,2.5v10.6c0,0.7-0.6,1.2-1.3,1.2
		c-0.7,0-1.2-0.6-1.2-1.2V29.8c0-0.6,0.6-1.2,1.3-1.2c0.6,0,1.2,0.6,1.2,1.2v1.3c1.1-1.3,3.3-2.7,5.7-2.7c3.3,0,5.1,1.7,5.1,5.1
		v10.2C157.7,44.4,157.1,44.9,156.5,44.9z"/>
	<path d="M169.8,24.9c-0.5,0-1.1-0.5-1.8-0.5c-1.6,0-2.5,1.1-2.5,3.1v1.2h2.4c0.6,0,1.1,0.5,1.1,1.1c0,0.6-0.5,1.1-1.1,1.1h-2.4
		v12.7c0,0.7-0.6,1.2-1.3,1.2c-0.7,0-1.2-0.6-1.2-1.2V31h-1.8c-0.6,0-1.1-0.5-1.1-1.1c0-0.6,0.5-1.1,1.1-1.1h1.8v-1.2
		c0-3.3,1.8-5.2,4.6-5.2c1.1,0,3.2,0.4,3.2,1.5C170.8,24.5,170.3,24.9,169.8,24.9z"/>
	<path d="M178.3,45.1c-4.9,0-7.9-3.8-7.9-8.4s3-8.4,7.9-8.4s7.9,3.7,7.9,8.4S183.2,45.1,178.3,45.1z M178.3,30.6
		c-3.4,0-5.3,2.9-5.3,6.1c0,3.3,1.9,6.2,5.3,6.2s5.3-2.9,5.3-6.2C183.6,33.5,181.7,30.6,178.3,30.6z"/>
	<path d="M196.6,31.1c-1.6,0.1-3.2,0.8-4.2,2.4v10.3c0,0.7-0.6,1.2-1.3,1.2h0c-0.7,0-1.2-0.6-1.2-1.2V29.8c0-0.6,0.6-1.2,1.3-1.2
		c0.6,0,1.2,0.6,1.2,1.2v1.6c1-1.3,2.5-2.8,4.4-2.8c0.6,0,1.1,0.5,1.1,1.2C197.9,30.4,197.3,31,196.6,31.1z"/>
	<path d="M213.2,44.9c-0.7,0-1.2-0.6-1.2-1.2v-1.4c-1.2,1.6-3.1,2.8-5.4,2.8c-4.2,0-7.1-3.2-7.1-8.3c0-5.1,2.9-8.4,7.1-8.4
		c2.1,0,4.1,1.1,5.4,2.8v-7.5c0-0.6,0.6-1.2,1.3-1.2c0.6,0,1.2,0.6,1.2,1.2v20C214.5,44.4,213.9,44.9,213.2,44.9z M212,33.2
		c-0.9-1.4-2.8-2.6-4.8-2.6c-3.2,0-5.1,2.6-5.1,6.2c0,3.5,1.9,6.1,5.1,6.1c2,0,3.9-1.1,4.8-2.5V33.2z"/>
	<path fill="#7F7B7A" d="M225.5,51.2c-2.3,0-4.2-0.4-6-1.9c-0.2-0.2-0.4-0.5-0.4-0.8c0-0.6,0.5-1.1,1.1-1.1c0.3,0,0.5,0.1,0.7,0.2
		c1.3,1.1,2.7,1.5,4.6,1.5c2.6,0,5.1-1.3,5.1-4.8v-2.3c-1.2,1.6-3.1,2.8-5.3,2.8c-4.2,0-7.1-3.1-7.1-8.3c0-5.1,2.9-8.3,7.1-8.3
		c2.1,0,4.1,1.1,5.3,2.8v-1.4c0-0.6,0.6-1.2,1.3-1.2c0.6,0,1.2,0.6,1.2,1.2v14.5C233.1,49.6,229.4,51.2,225.5,51.2z M230.6,33.2
		c-0.9-1.4-2.8-2.6-4.8-2.6c-3.2,0-5.1,2.5-5.1,6.1c0,3.5,1.9,6.1,5.1,6.1c2,0,3.9-1.2,4.8-2.6V33.2z"/>
	<path fill="#7F7B7A" d="M243.4,31.1c-1.6,0.1-3.2,0.8-4.2,2.4v10.3c0,0.7-0.6,1.2-1.3,1.2h0c-0.7,0-1.2-0.6-1.2-1.2V29.8
		c0-0.6,0.6-1.2,1.3-1.2c0.6,0,1.2,0.6,1.2,1.2v1.6c1-1.3,2.5-2.8,4.4-2.8c0.6,0,1.1,0.5,1.1,1.2C244.7,30.4,244.1,31,243.4,31.1z"
		/>
	<path fill="#7F7B7A" d="M253.4,45.1c-4.9,0-7.9-3.8-7.9-8.4s3-8.4,7.9-8.4c4.9,0,7.9,3.7,7.9,8.4S258.3,45.1,253.4,45.1z
		 M253.4,30.6c-3.4,0-5.3,2.9-5.3,6.1c0,3.3,1.9,6.2,5.3,6.2c3.4,0,5.3-2.9,5.3-6.2C258.7,33.5,256.8,30.6,253.4,30.6z"/>
	<path fill="#7F7B7A" d="M276,44.9c-0.7,0-1.2-0.6-1.2-1.2v-1.2c-1.2,1.4-3.3,2.6-5.7,2.6c-3.3,0-5.1-1.6-5.1-5.1V29.8
		c0-0.6,0.6-1.2,1.3-1.2c0.6,0,1.2,0.6,1.2,1.2v9.5c0,2.8,1.4,3.6,3.6,3.6c1.9,0,3.8-1.1,4.7-2.4V29.8c0-0.6,0.6-1.2,1.3-1.2
		c0.6,0,1.2,0.6,1.2,1.2v13.9C277.2,44.4,276.7,44.9,276,44.9z"/>
	<path fill="#7F7B7A" d="M288.2,45.1c-2.2,0-4.1-1-5.4-2.8v7.5c0,0.6-0.6,1.2-1.3,1.2c-0.7,0-1.2-0.6-1.2-1.2v-20
		c0-0.6,0.6-1.2,1.3-1.2c0.6,0,1.2,0.6,1.2,1.2v1.4c1.2-1.6,3.1-2.8,5.4-2.8c4.2,0,7.1,3.2,7.1,8.4
		C295.2,41.9,292.3,45.1,288.2,45.1z M287.5,30.6c-1.9,0-3.9,1.2-4.8,2.5v7.2c0.9,1.4,2.8,2.6,4.8,2.6c3.2,0,5.1-2.6,5.1-6.2
		C292.6,33.2,290.7,30.6,287.5,30.6z"/>
	<path fill="#B7272A" d="M44.8,44.8c0,7.4,6,13.4,13.4,13.4c4.9,0,9,4,9,9C67.2,30.1,37.1,0,0,0C0,24.7,20.1,44.8,44.8,44.8z"/>
	<path opacity="0.25" fill="#1D1B18" d="M44.8,44.8c12.4,0,22.4,10,22.4,22.4c0-4.9-4-9-9-9C50.8,58.2,44.8,52.2,44.8,44.8z"/>
	<path fill="#205198" d="M76.1,44.8c0,7.4,6,13.4,13.4,13.4c4.9,0,9,4,9,9C98.5,30.1,68.5,0,31.4,0C31.4,24.7,51.4,44.8,76.1,44.8z"
		/>
	<path opacity="0.25" fill="#1D1B18" d="M76.1,44.8c12.4,0,22.4,10,22.4,22.4c0-4.9-4-9-9-9C82.2,58.2,76.1,52.2,76.1,44.8z"/>
</g>
</svg>
