<?xml version="1.0" encoding="utf-8"?>
<!-- Generator: Adobe Illustrator 18.1.1, SVG Export Plug-In . SVG Version: 6.00 Build 0)  -->
<svg version="1.1" id="Layer_1" xmlns="http://www.w3.org/2000/svg" xmlns:xlink="http://www.w3.org/1999/xlink" x="0px" y="0px"
	 width="55.9px" height="55.9px" viewBox="-272.9 180.2 55.9 55.9" enable-background="new -272.9 180.2 55.9 55.9"
	 xml:space="preserve">
<g>
	<path fill="#231F20" d="M-245,180.2c-15.4,0-27.9,12.5-27.9,27.9c0,15.4,12.5,27.9,27.9,27.9s27.9-12.5,27.9-27.9
		C-217.1,192.8-229.6,180.2-245,180.2z M-245,233.6c-14,0-25.4-11.4-25.4-25.4c0-14,11.4-25.4,25.4-25.4c14,0,25.4,11.4,25.4,25.4
		C-219.6,222.2-231,233.6-245,233.6z"/>
	<path fill="#231F20" d="M-245.2,199.1c-1,0-1.9,0.8-1.9,1.9v21.2c0,1,0.8,1.9,1.9,1.9c1,0,1.9-0.8,1.9-1.9v-21.2
		C-243.3,199.9-244.1,199.1-245.2,199.1z"/>
	<circle fill="#231F20" cx="-245.1" cy="193.8" r="2.3"/>
</g>
</svg>
